<?xml version="1.0" encoding="UTF-8"?>
<svg version="1.1" xmlns="http://www.w3.org/2000/svg" width="100" height="100">
<path d="M0 0 C1.98171852 1.21520475 3.7034797 2.48339227 5.4453125 4.01953125 C6.2703125 4.74140625 7.0953125 5.46328125 7.9453125 6.20703125 C9.4453125 8.01953125 9.4453125 8.01953125 9.4453125 10.01953125 C11.0953125 10.01953125 12.7453125 10.01953125 14.4453125 10.01953125 C13.1253125 10.34953125 11.8053125 10.67953125 10.4453125 11.01953125 C10.9403125 12.00953125 10.9403125 12.00953125 11.4453125 13.01953125 C11.48553641 15.35251785 11.48851497 17.68659791 11.4453125 20.01953125 C12.0021875 20.06078125 12.5590625 20.10203125 13.1328125 20.14453125 C17.11561727 21.65153846 19.57523606 25.27937837 21.4453125 29.01953125 C21.47621685 32.33512641 21.37773435 35.63882897 21.28515625 38.953125 C21.19277992 42.19382486 21.19277992 42.19382486 23.4453125 45.01953125 C24.12139915 49.65780012 24.03132689 53.74095439 22.0703125 58.01953125 C18.74153163 60.55574524 15.9672266 60.81182682 11.890625 61.41796875 C9.11602248 61.90186546 9.11602248 61.90186546 6.4453125 64.64453125 C2.67936192 67.62590879 0.46974938 67.5139478 -4.1875 67.390625 C-6.66164152 67.00276453 -8.39348195 66.25948559 -10.5546875 65.01953125 C-11.4828125 65.82390625 -12.4109375 66.62828125 -13.3671875 67.45703125 C-18.9158011 72.2658297 -25.56437568 71.46884672 -32.5546875 71.01953125 C-38.39157686 69.29008255 -42.03449791 64.82948728 -45.5546875 60.01953125 C-46.7124381 56.54627944 -46.62335402 53.65885677 -46.5546875 50.01953125 C-47.885 50.17421875 -47.885 50.17421875 -49.2421875 50.33203125 C-53.57950482 49.92285037 -54.78995467 48.25821828 -57.5546875 45.01953125 C-57.8846875 44.68953125 -58.2146875 44.35953125 -58.5546875 44.01953125 C-58.9986016 39.40965409 -59.11246492 35.29445106 -57.2421875 31.01953125 C-55.5546875 29.01953125 -55.5546875 29.01953125 -52.5546875 27.01953125 C-51.5646875 27.01953125 -50.5746875 27.01953125 -49.5546875 27.01953125 C-49.5546875 25.69953125 -49.5546875 24.37953125 -49.5546875 23.01953125 C-50.2146875 22.35953125 -50.8746875 21.69953125 -51.5546875 21.01953125 C-50.9978125 20.95765625 -50.4409375 20.89578125 -49.8671875 20.83203125 C-46.60991224 19.68758319 -44.9047777 17.49331041 -42.5546875 15.01953125 C-40.11442979 13.7994024 -38.46088845 13.98556334 -35.7421875 13.95703125 C-31.87838175 13.65408042 -31.87838175 13.65408042 -28.9609375 11.31640625 C-28.1465489 9.90688752 -27.37015117 8.47474847 -26.6328125 7.0234375 C-21.70680831 -2.13250507 -8.86823971 -3.40355989 0 0 Z " fill="#C4E7E0" transform="translate(67.5546875,14.98046875)"/>
<path d="M0 0 C1.11858398 0.00580078 1.11858398 0.00580078 2.25976562 0.01171875 C3.37254883 0.00591797 3.37254883 0.00591797 4.5078125 0 C10.06899561 0.01008374 10.06899561 0.01008374 12.32226562 1.13671875 C12.32226562 3.77671875 12.32226562 6.41671875 12.32226562 9.13671875 C13.64226562 9.46671875 14.96226563 9.79671875 16.32226562 10.13671875 C15.66226563 10.46671875 15.00226563 10.79671875 14.32226562 11.13671875 C13.66226563 10.80671875 13.00226563 10.47671875 12.32226562 10.13671875 C12.32226562 15.41671875 12.32226562 20.69671875 12.32226562 26.13671875 C13.64226562 26.46671875 14.96226563 26.79671875 16.32226562 27.13671875 C15.00226563 27.13671875 13.68226562 27.13671875 12.32226562 27.13671875 C12.37447266 28.11511719 12.37447266 28.11511719 12.42773438 29.11328125 C12.59680168 34.57173993 12.5315919 38.48872898 9.32226562 43.13671875 C4.12447376 47.94467623 -0.08418315 48.49044356 -6.95117188 48.41796875 C-12.0368356 47.89337306 -14.64004166 45.17441146 -18.11523438 41.69921875 C-19.67773438 39.13671875 -19.67773438 39.13671875 -19.42773438 36.32421875 C-19.18023437 35.60234375 -18.93273438 34.88046875 -18.67773438 34.13671875 C-16.03773437 33.80671875 -13.39773437 33.47671875 -10.67773438 33.13671875 C-10.34773438 32.14671875 -10.01773438 31.15671875 -9.67773438 30.13671875 C-10.99773438 30.13671875 -12.31773438 30.13671875 -13.67773438 30.13671875 C-13.34773438 28.15671875 -13.01773438 26.17671875 -12.67773438 24.13671875 C-9.18359833 27.00370217 -7.38936564 28.97822023 -6.86523438 33.44921875 C-6.80335937 34.66609375 -6.74148437 35.88296875 -6.67773438 37.13671875 C-4.36773437 37.13671875 -2.05773437 37.13671875 0.32226562 37.13671875 C0.65226562 33.83671875 0.98226562 30.53671875 1.32226562 27.13671875 C0.66226563 26.80671875 0.00226562 26.47671875 -0.67773438 26.13671875 C-0.01773438 26.13671875 0.64226563 26.13671875 1.32226562 26.13671875 C1.32226562 23.49671875 1.32226562 20.85671875 1.32226562 18.13671875 C0.66226563 17.80671875 0.00226562 17.47671875 -0.67773438 17.13671875 C-0.01773438 17.13671875 0.64226563 17.13671875 1.32226562 17.13671875 C1.32226562 14.82671875 1.32226562 12.51671875 1.32226562 10.13671875 C-0.10085937 10.19859375 -0.10085937 10.19859375 -1.55273438 10.26171875 C-4.67773438 10.13671875 -4.67773438 10.13671875 -6.67773438 8.13671875 C-6.86523438 4.57421875 -6.86523438 4.57421875 -6.67773438 1.13671875 C-4.86585595 -0.67515967 -2.40795928 0.00437413 0 0 Z " fill="#499FB1" transform="translate(54.677734375,27.86328125)"/>
<path d="M0 0 C2.38564077 0.57584432 4.66682784 1.22227595 7 2 C7.99 2 8.98 2 10 2 C10.33 2.99 10.66 3.98 11 5 C10.67 5.66 10.34 6.32 10 7 C11.32 7.33 12.64 7.66 14 8 C13.31640625 9.94921875 13.31640625 9.94921875 12 12 C5.67195557 13.78483304 -4.04347248 13.97826376 -10 11 C-9.62005832 8.24542282 -9.1926367 7.17979426 -7.125 5.25 C-5 4 -5 4 -2 4 C-1.34 2.68 -0.68 1.36 0 0 Z " fill="#F9F8EB" transform="translate(32,50)"/>
<path d="M0 0 C4 1 4 1 6 4 C7.65 3.67 9.3 3.34 11 3 C11.38218767 4.65614657 11.71395102 6.32457024 12 8 C11.67 8.33 11.34 8.66 11 9 C12.65 9 14.3 9 16 9 C16.625 11.375 16.625 11.375 17 14 C14.56722986 16.43277014 13.54430545 16.3805058 10.1875 16.6875 C9.33542969 16.77386719 8.48335937 16.86023438 7.60546875 16.94921875 C5 17 5 17 0 16 C0 10.72 0 5.44 0 0 Z " fill="#FAF8EB" transform="translate(67,38)"/>
<path d="M0 0 C1.48831242 0.00667405 2.97660807 0.01863442 4.46484375 0.03515625 C5.22345703 0.03966797 5.98207031 0.04417969 6.76367188 0.04882812 C8.64326246 0.06064945 10.52281274 0.07858547 12.40234375 0.09765625 C12.73234375 0.75765625 13.06234375 1.41765625 13.40234375 2.09765625 C8.12234375 2.09765625 2.84234375 2.09765625 -2.59765625 2.09765625 C-2.59765625 3.74765625 -2.59765625 5.39765625 -2.59765625 7.09765625 C-0.28765625 7.42765625 2.02234375 7.75765625 4.40234375 8.09765625 C4.47655829 12.03026569 4.53097511 15.96260347 4.56713867 19.89575195 C4.58962708 21.89093326 4.62774573 23.88591838 4.66601562 25.88085938 C4.67568359 27.13447266 4.68535156 28.38808594 4.6953125 29.6796875 C4.71102295 30.83702393 4.7267334 31.99436035 4.74291992 33.18676758 C4.40234375 36.09765625 4.40234375 36.09765625 3.10668945 37.9753418 C0.2462504 39.85894563 -2.29563295 39.45787697 -5.59765625 39.09765625 C-6.25765625 38.10765625 -6.91765625 37.11765625 -7.59765625 36.09765625 C-10.66322223 35.36422197 -10.66322223 35.36422197 -13.59765625 35.09765625 C-13.59765625 34.76765625 -13.59765625 34.43765625 -13.59765625 34.09765625 C-11.61765625 33.43765625 -9.63765625 32.77765625 -7.59765625 32.09765625 C-7.59765625 31.43765625 -7.59765625 30.77765625 -7.59765625 30.09765625 C-8.91765625 30.09765625 -10.23765625 30.09765625 -11.59765625 30.09765625 C-11.26765625 28.11765625 -10.93765625 26.13765625 -10.59765625 24.09765625 C-7.1035202 26.96463967 -5.30928751 28.93915773 -4.78515625 33.41015625 C-4.72328125 34.62703125 -4.66140625 35.84390625 -4.59765625 37.09765625 C-2.28765625 37.09765625 0.02234375 37.09765625 2.40234375 37.09765625 C2.73234375 33.79765625 3.06234375 30.49765625 3.40234375 27.09765625 C2.74234375 26.76765625 2.08234375 26.43765625 1.40234375 26.09765625 C2.06234375 26.09765625 2.72234375 26.09765625 3.40234375 26.09765625 C3.40234375 23.45765625 3.40234375 20.81765625 3.40234375 18.09765625 C2.74234375 17.76765625 2.08234375 17.43765625 1.40234375 17.09765625 C2.06234375 17.09765625 2.72234375 17.09765625 3.40234375 17.09765625 C3.40234375 14.78765625 3.40234375 12.47765625 3.40234375 10.09765625 C1.97921875 10.15953125 1.97921875 10.15953125 0.52734375 10.22265625 C-2.59765625 10.09765625 -2.59765625 10.09765625 -4.59765625 8.09765625 C-4.78515625 4.53515625 -4.78515625 4.53515625 -4.59765625 1.09765625 C-3.59765625 0.09765625 -3.59765625 0.09765625 0 0 Z " fill="#4D3B3A" transform="translate(52.59765625,27.90234375)"/>
<path d="M0 0 C0.33 0 0.66 0 1 0 C2.69822251 11.3326928 2.69822251 11.3326928 1.09375 15.1640625 C-1.24993404 18.06508604 -3.36733193 19.49296682 -7 20 C-9.98046875 19.73046875 -9.98046875 19.73046875 -13.1875 19.1875 C-14.25355469 19.01605469 -15.31960937 18.84460938 -16.41796875 18.66796875 C-17.27003906 18.44753906 -18.12210938 18.22710937 -19 18 C-19.33 17.34 -19.66 16.68 -20 16 C-19.26394531 16.09539062 -18.52789062 16.19078125 -17.76953125 16.2890625 C-16.30580078 16.45535156 -16.30580078 16.45535156 -14.8125 16.625 C-13.84957031 16.74101563 -12.88664062 16.85703125 -11.89453125 16.9765625 C-8.71307439 17.00232328 -6.82063686 16.43224048 -4 15 C-1.27893306 12.27893306 -1.39344428 10.15223689 -0.875 6.375 C-0.70742188 5.18648437 -0.53984375 3.99796875 -0.3671875 2.7734375 C-0.24601562 1.85820313 -0.12484375 0.94296875 0 0 Z " fill="#4794A6" transform="translate(63,54)"/>
<path d="M0 0 C3.49413605 2.86698342 5.28836874 4.84150148 5.8125 9.3125 C5.874375 10.529375 5.93625 11.74625 6 13 C8.31 13 10.62 13 13 13 C13 12.34 13 11.68 13 11 C13.66 11.33 14.32 11.66 15 12 C13.9375 13.5 13.9375 13.5 12 15 C8.4375 15.375 8.4375 15.375 5 15 C4.34 14.01 3.68 13.02 3 12 C-0.06556598 11.26656572 -0.06556598 11.26656572 -3 11 C-3 10.67 -3 10.34 -3 10 C-1.02 9.34 0.96 8.68 3 8 C3 7.34 3 6.68 3 6 C1.68 6 0.36 6 -1 6 C-0.67 4.02 -0.34 2.04 0 0 Z " fill="#514242" transform="translate(42,52)"/>
<path d="M0 0 C1.98 0 3.96 0 6 0 C6.33 0.66 6.66 1.32 7 2 C9.02463255 2.65213292 9.02463255 2.65213292 11 3 C11 3.66 11 4.32 11 5 C7.7 5 4.4 5 1 5 C1 4.34 1 3.68 1 3 C-1.97 3 -4.94 3 -8 3 C-8 2.67 -8 2.34 -8 2 C-5.36 1.67 -2.72 1.34 0 1 C0 0.67 0 0.34 0 0 Z " fill="#EFF9F7" transform="translate(24,34)"/>
<path d="M0 0 C4.92307692 4.18461538 4.92307692 4.18461538 5.3125 8.3125 C5.209375 9.199375 5.10625 10.08625 5 11 C3 8 3 8 3 6 C1.68 6 0.36 6 -1 6 C-0.67 4.02 -0.34 2.04 0 0 Z " fill="#897D77" transform="translate(42,52)"/>
<path d="M0 0 C0.66 0 1.32 0 2 0 C2.433125 0.9590625 2.433125 0.9590625 2.875 1.9375 C3.82823451 4.15206079 3.82823451 4.15206079 6 5 C5.67 5.66 5.34 6.32 5 7 C3.02 7 1.04 7 -1 7 C-1 6.34 -1 5.68 -1 5 C-0.34 5 0.32 5 1 5 C0.67 3.35 0.34 1.7 0 0 Z " fill="#948881" transform="translate(78,41)"/>
</svg>
